<svg width="48" height="96" viewBox="0 0 48 96" fill="none" xmlns="http://www.w3.org/2000/svg">
<path d="M33.9251 1.08281C35.2541 1.87243 36.1946 2.58554 36.8114 4.04279C37.0664 4.606 37.0664 4.606 37.5227 5.03491C38.4168 5.27767 39.2905 5.37722 40.2101 5.48534C42.7316 5.89854 44.6117 7.95416 46.2085 9.82704C47.2035 11.2703 47.7011 12.552 47.4065 14.3197C46.6861 16.1968 45.8844 17.7178 44.374 19.0556C42.4533 21.0204 42.4471 24.2027 42.1213 26.8064C42.0154 27.498 42.0154 27.498 41.7158 28.3966C41.9444 28.4769 42.173 28.5572 42.4085 28.6399C43.6709 29.1977 43.6709 29.1977 44.1119 29.8941C44.331 31.4034 44.331 31.4034 44.1119 32.2902C43.5701 32.9827 43.0733 33.3023 42.3149 33.7877C42.1172 33.7877 41.9195 33.7877 41.7158 33.7877C41.7297 34.0807 41.7436 34.3738 41.758 34.6757C41.8213 36.9769 41.8734 39.007 40.5178 40.9759C39.289 42.273 37.6505 42.9976 35.8708 43.1274C35.2231 43.1285 34.5756 43.1028 33.9286 43.0725C33.9286 44.0608 33.9286 45.0492 33.9286 46.0675C34.1692 46.1027 34.4097 46.1378 34.6575 46.174C35.939 46.4056 37.1833 46.7205 38.44 47.0597C38.6765 47.1197 38.9129 47.1797 39.1566 47.2416C40.5557 47.6204 41.5517 48.0248 42.6144 49.0626C43.105 50.0439 43.1137 51.0014 42.9139 52.0577C42.3091 53.1351 41.5579 54.0857 40.6079 54.8785C40.0566 55.549 40.1575 55.9987 40.2183 56.8498C40.3142 58.1928 40.3142 58.1928 39.8814 58.8902C39.0463 59.4191 38.4956 59.3657 37.5227 59.2459C36.6476 58.8294 36.6476 58.8294 35.8006 58.2725C35.5179 58.0918 35.2353 57.9111 34.9442 57.725C34.2399 57.1588 33.9461 56.7844 33.6291 55.9513C32.9373 55.9513 32.2454 55.9513 31.5326 55.9513C31.5326 55.2594 31.5326 54.5676 31.5326 53.8547C31.1372 53.8547 30.7419 53.8547 30.3345 53.8547C30.3345 54.4478 30.3345 55.0408 30.3345 55.6518C28.9508 55.6518 27.5671 55.6518 26.1414 55.6518C26.1414 54.9599 26.1414 54.2681 26.1414 53.5552C25.6472 53.5552 25.153 53.5552 24.6439 53.5552C24.6439 54.3459 24.6439 55.1366 24.6439 55.9513C24.3659 56.0193 24.0879 56.0872 23.8015 56.1572C22.6511 56.6309 22.5015 56.9613 21.9483 58.0479C21.7536 58.6045 21.5792 59.1686 21.423 59.7373C21.334 60.0581 21.245 60.379 21.1533 60.7095C21.0636 61.0419 20.9738 61.3743 20.8813 61.7168C20.7449 62.2085 20.7449 62.2085 20.6058 62.7101C20.2067 64.1622 19.8251 65.6125 19.5066 67.0846C19.2527 68.2311 19.2527 68.2311 18.9532 68.8302C17.8591 68.4558 17.5214 68.3297 16.8567 67.3326C16.5445 65.3617 17.0793 63.6875 17.8078 61.8795C17.9054 61.6259 18.003 61.3723 18.1036 61.111C18.4138 60.3067 18.7298 59.5048 19.0468 58.703C19.4603 57.6476 19.8708 56.5912 20.2788 55.5336C20.3764 55.2813 20.474 55.0291 20.5746 54.7691C21.2036 53.1164 21.7116 51.4747 22.0737 49.7405C22.3779 48.5561 22.967 47.6581 23.9197 46.8771C24.5166 46.1601 24.4961 45.5841 24.5503 44.6636C24.57 44.3659 24.5897 44.0682 24.61 43.7616C24.6211 43.5342 24.6323 43.3067 24.6439 43.0725C24.4304 43.0647 24.2169 43.057 23.9969 43.0491C22.0836 42.9357 20.7826 42.7613 19.2527 41.5749C17.429 39.2637 17.3722 36.6132 17.4557 33.7877C17.2229 33.7518 16.9901 33.7159 16.7502 33.6789C15.9581 33.4882 15.9581 33.4882 15.2655 32.833C14.6618 31.8267 14.5678 31.3477 14.7601 30.1936C15.2655 29.3512 15.2655 29.3512 15.9581 28.6961C16.7502 28.5054 16.7502 28.5054 17.4557 28.3966C17.2295 27.2288 16.9969 26.0623 16.7631 24.896C16.6992 24.5658 16.6353 24.2355 16.5694 23.8952C16.4724 23.4159 16.4724 23.4159 16.3735 22.927C16.3154 22.6337 16.2574 22.3404 16.1976 22.0382C15.6361 20.0923 14.2347 18.6879 12.9514 17.172C12.0458 16.0067 12.0025 15.0669 11.9709 13.6271C11.9597 13.2946 11.9485 12.9622 11.937 12.6197C12.1851 10.683 13.5407 9.46089 14.8724 8.12359C15.2836 7.70488 15.2836 7.70488 15.7031 7.27771C17.048 6.1041 18.1653 5.50485 19.9641 5.57777C20.3567 5.58993 20.3567 5.58993 20.7573 5.60234C20.9527 5.61276 21.148 5.62319 21.3493 5.63393C21.3616 5.38065 21.374 5.12738 21.3867 4.86644C21.866 2.98355 23.0996 1.84995 24.7375 0.860514C27.4977 -0.400579 31.2164 -0.232443 33.9251 1.08281Z" fill="#A46648"/>
<path d="M24.6438 53.5552C25.138 53.5552 25.6322 53.5552 26.1413 53.5552C26.1413 54.247 26.1413 54.9389 26.1413 55.6517C27.5251 55.6517 28.9088 55.6517 30.3345 55.6517C30.3345 55.0587 30.3345 54.4657 30.3345 53.8547C30.7298 53.8547 31.1252 53.8547 31.5325 53.8547C31.5325 54.5465 31.5325 55.2384 31.5325 55.9512C31.8475 55.9204 32.1626 55.8895 32.4872 55.8576C33.9259 55.9756 34.2028 56.3792 35.1266 57.4488C35.3838 57.625 35.641 57.8012 35.9061 57.9827C36.6241 58.6468 36.6241 58.6468 36.8249 59.5051C36.8314 59.8373 36.8378 60.1696 36.8444 60.5119C36.8607 61.0793 36.8607 61.0793 36.8774 61.6581C36.882 62.0716 36.8865 62.485 36.8909 62.8984C36.9008 63.327 36.9114 63.7556 36.9226 64.1841C36.9505 65.3155 36.9698 66.4468 36.9872 67.5783C37.0058 68.7097 37.0315 69.841 37.057 70.9723C37.0669 71.4148 37.0768 71.8573 37.0867 72.2999C37.0915 72.5162 37.0963 72.7325 37.1013 72.9554C37.1154 73.6014 37.1287 74.2475 37.1417 74.8935C37.1885 77.1724 37.2468 79.4491 37.3682 81.7253C37.3791 81.9411 37.39 82.1568 37.4013 82.379C37.3886 83.3261 37.3886 83.3261 37.8222 84.105C37.9596 85.9255 37.9596 85.9255 37.4946 86.8597C36.6595 87.6494 36.0364 87.5545 34.902 87.5587C34.6079 87.5604 34.6079 87.5604 34.3079 87.5622C33.894 87.563 33.4801 87.5608 33.0663 87.5558C32.433 87.5494 31.8007 87.5557 31.1675 87.5634C30.765 87.5626 30.3625 87.5611 29.9601 87.5587C29.5941 87.5574 29.2281 87.556 28.851 87.5546C27.9384 87.3996 27.9384 87.3996 27.3675 86.8597C26.9003 85.9211 26.962 85.1362 27.0399 84.105C27.1387 84.0062 27.2375 83.9073 27.3394 83.8055C27.3672 83.3917 27.3746 82.9765 27.3734 82.5618C27.3734 82.298 27.3733 82.0341 27.3733 81.7623C27.3718 81.4756 27.3702 81.1889 27.3686 80.8935C27.3682 80.6014 27.3678 80.3093 27.3673 80.0084C27.3657 79.0715 27.3619 78.1345 27.3581 77.1976C27.3566 76.5641 27.3552 75.9305 27.354 75.297C27.3507 73.7404 27.3457 72.1838 27.3394 70.6271C26.2779 74.8074 25.2495 78.9894 24.3443 83.2065C24.542 83.2065 24.7396 83.2065 24.9433 83.2065C24.9169 83.6748 24.8845 84.1427 24.8497 84.6104C24.8237 85.0013 24.8237 85.0013 24.7971 85.4002C24.6085 86.3859 24.3842 86.9182 23.7453 87.6991C22.9352 87.84 22.3139 87.8819 21.506 87.8559C21.2886 87.8545 21.0712 87.8531 20.8472 87.8516C20.1532 87.8452 19.4598 87.8283 18.766 87.8114C18.2964 87.8065 17.8269 87.8022 17.3573 87.7986C13.9201 87.7577 13.9201 87.7577 13.562 87.3996C13.5561 86.7994 13.5561 86.7994 13.6182 86.0331C13.6348 85.7856 13.6514 85.5381 13.6685 85.2832C13.8857 84.2943 14.2794 83.5497 14.7465 82.6587C15.2809 81.5487 15.602 80.3825 15.9393 79.2006C16.0149 78.9422 16.0905 78.6838 16.1684 78.4176C16.4008 77.6187 16.6294 76.8187 16.8566 76.0183C16.9283 75.7663 16.9999 75.5143 17.0738 75.2546C17.8636 72.4663 18.6044 69.6717 19.2866 66.8552C19.8811 64.411 20.4939 61.9735 21.2182 59.5641C21.3855 59.004 21.3855 59.004 21.5563 58.4327C21.9614 57.4157 22.3849 56.7347 23.1463 55.9512C23.9699 55.8576 23.9699 55.8576 24.6438 55.9512C24.6438 55.1605 24.6438 54.3698 24.6438 53.5552Z" fill="#1DAFF4"/>
<path d="M33.9252 1.08281C35.2541 1.87243 36.1947 2.58554 36.8115 4.04279C37.0665 4.606 37.0665 4.606 37.5228 5.03491C38.4169 5.27767 39.2906 5.37722 40.2102 5.48534C42.7317 5.89854 44.6117 7.95416 46.2085 9.82704C47.2036 11.2703 47.7012 12.552 47.4066 14.3197C46.9106 15.5867 46.3362 16.7634 45.6095 17.9138C45.5014 18.1256 45.3934 18.3374 45.282 18.5556C44.7557 19.3805 44.3569 19.8004 43.513 20.3098C41.6139 20.7137 39.6172 20.5341 37.6913 20.4596C37.1525 20.4476 36.6138 20.4366 36.075 20.4268C34.7599 20.4005 33.4461 20.3592 32.1317 20.3098C32.2369 20.1311 32.3422 19.9524 32.4507 19.7682C32.5875 19.5304 32.7243 19.2925 32.8652 19.0474C33.0014 18.8131 33.1375 18.5788 33.2778 18.3374C33.789 17.2854 33.8654 16.3791 33.9287 15.2182C32.2757 15.6936 31.0486 16.1608 29.7356 17.3147C29.5379 17.3147 29.3402 17.3147 29.1366 17.3147C28.9821 17.1356 28.8277 16.9565 28.6686 16.7719C27.652 15.8595 26.5404 15.5841 25.243 15.2182C25.3708 15.7867 25.5026 16.3544 25.6361 16.9216C25.709 17.2378 25.782 17.554 25.8572 17.8798C26.1403 18.8085 26.5284 19.4911 27.04 20.3098C25.4686 20.3844 23.8982 20.4384 22.3255 20.4744C21.7917 20.4893 21.258 20.5097 20.7247 20.5358C16.3198 20.7455 16.3198 20.7455 14.7226 19.693C13.0917 17.9302 11.9365 16.0081 11.9336 13.5709C11.9278 13.2466 11.922 12.9223 11.916 12.5881C12.2103 10.6787 13.5518 9.4498 14.8725 8.12359C15.2837 7.70488 15.2837 7.70488 15.7032 7.27771C17.0481 6.1041 18.1654 5.50485 19.9641 5.57777C20.3568 5.58993 20.3568 5.58993 20.7574 5.60234C20.9527 5.61276 21.1481 5.62319 21.3494 5.63393C21.3617 5.38065 21.3741 5.12738 21.3868 4.86644C21.8661 2.98355 23.0997 1.84995 24.7375 0.860514C27.4977 -0.400579 31.2165 -0.232443 33.9252 1.08281Z" fill="#3D3D3D"/>
<path d="M24.6437 43.0723C27.7077 43.0723 30.7717 43.0723 33.9285 43.0723C33.9285 44.0606 33.9285 45.049 33.9285 46.0673C34.169 46.1025 34.4096 46.1376 34.6574 46.1738C35.9389 46.4054 37.1832 46.7203 38.4398 47.0595C38.7945 47.1495 38.7945 47.1495 39.1564 47.2414C40.5556 47.6202 41.5515 48.0246 42.6142 49.0624C43.1049 50.0437 43.1135 51.0012 42.9137 52.0575C42.309 53.1349 41.5578 54.0855 40.6078 54.8783C40.0564 55.5488 40.1574 55.9985 40.2182 56.8496C40.3141 58.1926 40.3141 58.1926 39.8812 58.89C39.0461 59.4189 38.4955 59.3655 37.5226 59.2457C36.6475 58.8292 36.6475 58.8292 35.8004 58.2723C35.5178 58.0916 35.2352 57.9109 34.944 57.7248C34.2398 57.1586 33.946 56.7842 33.629 55.9511C32.9371 55.9511 32.2453 55.9511 31.5324 55.9511C31.5324 55.2593 31.5324 54.5674 31.5324 53.8546C31.1371 53.8546 30.7417 53.8546 30.3344 53.8546C30.3344 54.4476 30.3344 55.0406 30.3344 55.6516C28.9507 55.6516 27.5669 55.6516 26.1413 55.6516C26.1413 54.9597 26.1413 54.2679 26.1413 53.5551C25.6471 53.5551 25.1529 53.5551 24.6437 53.5551C24.6437 54.3458 24.6437 55.1365 24.6437 55.9511C24.3658 56.0191 24.0878 56.087 23.8014 56.157C22.651 56.6307 22.5013 56.9611 21.9482 58.0477C21.7534 58.6043 21.5791 59.1684 21.4229 59.7371C21.2894 60.2183 21.2894 60.2183 21.1532 60.7093C21.0634 61.0417 20.9736 61.3742 20.8812 61.7167C20.7902 62.0444 20.6993 62.3722 20.6056 62.7099C20.2065 64.162 19.825 65.6124 19.5065 67.0844C19.2526 68.231 19.2526 68.231 18.9531 68.83C17.8589 68.4557 17.5212 68.3295 16.8565 67.3324C16.5444 65.3615 17.0791 63.6873 17.8077 61.8793C17.9053 61.6257 18.0029 61.3721 18.1034 61.1109C18.4136 60.3065 18.7297 59.5046 19.0467 58.7029C19.4601 57.6474 19.8707 56.591 20.2786 55.5334C20.3762 55.2812 20.4739 55.0289 20.5744 54.7689C21.2034 53.1162 21.7115 51.4745 22.0736 49.7403C22.4445 48.296 23.3004 47.4107 24.3442 46.3669C24.4431 45.2796 24.5419 44.1924 24.6437 43.0723Z" fill="#FCAF2A"/>
<path d="M30.3347 53.8547C30.7301 53.8547 31.1254 53.8547 31.5327 53.8547C31.5327 54.5466 31.5327 55.2385 31.5327 55.9513C31.8478 55.9204 32.1628 55.8895 32.4874 55.8577C33.9262 55.9756 34.2031 56.3792 35.1268 57.4488C35.3845 57.6136 35.6422 57.7784 35.9077 57.9482C36.7387 58.7583 36.805 59.2339 36.8297 60.3735C36.8258 60.7157 36.8258 60.7157 36.8219 61.0649C36.825 61.3075 36.8282 61.5502 36.8314 61.8001C36.84 62.6008 36.8381 63.4011 36.8362 64.2018C36.8401 64.7575 36.8447 65.3131 36.8499 65.8687C36.8618 67.3301 36.8649 68.7914 36.8661 70.2529C36.8688 71.7446 36.8801 73.2362 36.8906 74.7279C36.9099 77.654 36.9191 80.5799 36.9239 83.5061C33.9588 83.5061 30.9936 83.5061 27.9387 83.5061C27.9387 78.7618 27.9387 74.0176 27.9387 69.1297C27.741 69.0308 27.5433 68.932 27.3396 68.8301C27.6361 68.6819 27.6361 68.6819 27.9387 68.5306C28.0375 66.8504 28.1363 65.1702 28.2382 63.439C27.9416 63.3402 27.6451 63.2413 27.3396 63.1395C26.6899 62.1649 26.6685 61.9013 26.6821 60.7774C26.6841 60.4965 26.686 60.2156 26.688 59.9262C26.693 59.6338 26.698 59.3413 26.7032 59.04C26.7059 58.744 26.7086 58.4481 26.7114 58.1432C26.7184 57.4125 26.7283 56.6819 26.7406 55.9513C26.5429 55.8525 26.3453 55.7536 26.1416 55.6518C27.5253 55.6518 28.9091 55.6518 30.3347 55.6518C30.3347 55.0588 30.3347 54.4657 30.3347 53.8547Z" fill="#1CB0F5"/>
<path d="M25.2428 15.2183C26.8622 15.3478 27.8646 15.6921 29.1364 16.7158C29.1364 16.9135 29.1364 17.1112 29.1364 17.3148C29.3066 17.1886 29.4769 17.0623 29.6523 16.9322C31.1053 15.9014 32.1381 15.2944 33.9285 15.2183C34.1339 17.5186 33.7962 17.8261 32.431 20.0104C35.9891 20.1092 39.5473 20.2081 43.2133 20.3099C42.7191 23.0774 42.2249 25.8448 41.7157 28.6961C40.7911 28.3263 39.9913 28.0001 39.1371 27.5295C38.9382 27.4206 38.7393 27.3118 38.5343 27.1996C38.324 27.0838 38.1137 26.9681 37.897 26.8488C37.4447 26.6035 36.9923 26.3584 36.5398 26.1135C35.8309 25.729 35.1227 25.3432 34.4164 24.9538C33.7317 24.5769 33.0442 24.2055 32.3561 23.835C32.1458 23.7174 31.9354 23.5998 31.7188 23.4786C30.8609 23.0214 30.2204 22.6983 29.2365 22.7388C28.4641 23.0334 27.7426 23.3621 27.0106 23.7472C26.7226 23.8979 26.4347 24.0486 26.138 24.2038C25.8364 24.3643 25.5348 24.5248 25.224 24.6902C24.9161 24.8523 24.6081 25.0143 24.2908 25.1813C22.3807 26.1921 20.4997 27.2341 18.6571 28.3639C18.0546 28.6961 18.0546 28.6961 17.4555 28.6961C17.2046 27.4672 16.9555 26.2379 16.7068 25.0084C16.6354 24.6588 16.5639 24.3092 16.4903 23.949C16.4228 23.6141 16.3552 23.2792 16.2856 22.9341C16.2229 22.6251 16.1601 22.3161 16.0955 21.9978C15.958 21.2084 15.958 21.2084 15.958 20.3099C19.5162 20.2111 23.0743 20.1122 26.7403 20.0104C26.1473 18.9726 26.1473 18.9726 25.5423 17.9138C25.3598 17.1194 25.3598 17.1194 25.3176 16.435C25.3007 16.2037 25.2837 15.9725 25.2662 15.7342C25.2584 15.5639 25.2507 15.3937 25.2428 15.2183Z" fill="#F9AE2A"/>
<path d="M20.1508 91.5841C23.2643 91.5541 26.3766 91.5549 29.49 91.585C30.4746 91.5941 31.4591 91.6015 32.4437 91.6091C34.4095 91.625 36.3751 91.6468 38.3408 91.672C39.1275 91.6816 39.9142 91.6897 40.7009 91.6964C41.8018 91.7063 42.9024 91.722 44.0031 91.7391C44.3383 91.741 44.6734 91.7429 45.0187 91.7449C45.3251 91.7508 45.6315 91.7567 45.9472 91.7628C46.2158 91.7662 46.4843 91.7695 46.761 91.7729C46.974 91.8123 47.187 91.8517 47.4065 91.8923C48.0056 92.7909 48.0056 92.7909 47.9494 93.7081C47.706 94.5879 47.706 94.5879 46.8075 95.1869C45.9893 95.264 45.9893 95.264 44.9792 95.267C44.5967 95.2696 44.2141 95.2721 43.8199 95.2748C43.3951 95.2746 42.9703 95.2743 42.5454 95.2739C42.0987 95.2757 41.652 95.2778 41.2053 95.28C39.9912 95.2853 38.7771 95.2867 37.563 95.2871C36.55 95.2877 35.5369 95.2899 34.5239 95.292C32.1343 95.2969 29.7447 95.2984 27.3551 95.2979C24.8886 95.2976 22.4223 95.3039 19.9559 95.3133C17.8393 95.3212 15.7228 95.3244 13.6062 95.324C12.3417 95.3239 11.0771 95.3256 9.81256 95.3319C8.62343 95.3377 7.43443 95.3378 6.24529 95.3334C5.8087 95.3328 5.3721 95.3342 4.93552 95.3378C4.3399 95.3424 3.74423 95.3389 3.14861 95.335C2.64844 95.3355 2.64844 95.3355 2.13816 95.336C1.08326 95.1523 0.728114 94.8295 0.0842367 93.9889C-0.0280789 93.2027 -0.0280789 93.2027 0.0842367 92.4914C0.863047 91.7125 1.19464 91.8115 2.28002 91.7968C2.61642 91.7909 2.95282 91.7849 3.29942 91.7788C3.66731 91.7754 4.0352 91.7719 4.41424 91.7683C4.79533 91.7625 5.17642 91.7567 5.56905 91.7507C6.60233 91.735 7.63561 91.7232 8.66894 91.7122C9.52972 91.7028 10.3905 91.6913 11.2512 91.6799C14.2177 91.6407 17.1843 91.613 20.1508 91.5841Z" fill="#E7E7E7"/>
<path d="M35.1266 46.0676C36.255 46.3329 37.3542 46.6718 38.4586 47.0223C38.7548 47.1097 39.0509 47.1972 39.356 47.2873C42.0905 48.1476 42.0905 48.1476 42.9138 49.6617C43.1204 50.922 43.1736 51.6017 42.5406 52.7129C41.9535 53.5094 41.3693 54.2431 40.6078 54.8785C40.0565 55.549 40.1575 55.9987 40.2183 56.8499C40.3142 58.1929 40.3142 58.1929 39.8813 58.8903C39.0462 59.4192 38.4955 59.3658 37.5227 59.2459C36.6476 58.8294 36.6476 58.8294 35.8005 58.2725C35.5179 58.0919 35.2353 57.9112 34.9441 57.725C34.2399 57.1589 33.9461 56.7844 33.6291 55.9514C32.9372 55.9514 32.2453 55.9514 31.5325 55.9514C31.5325 55.2595 31.5325 54.5676 31.5325 53.8548C32.3232 53.8548 33.1139 53.8548 33.9286 53.8548C34.0274 53.3606 34.1263 52.8664 34.2281 52.3573C33.9563 52.2893 33.6845 52.2214 33.4044 52.1513C32.2637 51.6907 31.8557 51.3144 31.233 50.2607C31.0278 49.0551 31.1765 48.5649 31.7759 47.4902C32.8297 46.1654 33.4787 45.9153 35.1266 46.0676Z" fill="#A46649"/>
<path d="M27.3397 69.1299C27.5374 69.1299 27.7351 69.1299 27.9387 69.1299C27.9387 73.8741 27.9387 78.6183 27.9387 83.5063C30.9039 83.5063 33.869 83.5063 36.924 83.5063C36.8251 82.4191 36.7263 81.3318 36.6245 80.2117C36.6027 79.4277 36.5919 78.6432 36.5952 77.8589C36.5956 77.6575 36.5961 77.4561 36.5965 77.2485C36.5982 76.6201 36.6019 75.9918 36.6058 75.3634C36.6073 74.9311 36.6086 74.4988 36.6098 74.0665C36.6131 73.02 36.6183 71.9735 36.6245 70.9269C36.7233 70.9269 36.8221 70.9269 36.924 70.9269C36.9406 71.3155 36.9571 71.7041 36.9742 72.1044C37.0359 73.5406 37.0994 74.9768 37.1635 76.4129C37.191 77.0355 37.218 77.6581 37.2445 78.2808C37.2826 79.1737 37.3225 80.0665 37.3627 80.9593C37.3743 81.2395 37.3858 81.5196 37.3977 81.8083C37.4097 82.0661 37.4217 82.3239 37.434 82.5895C37.444 82.8177 37.454 83.0458 37.4642 83.2808C37.4686 83.8137 37.4686 83.8137 37.8225 84.1053C37.9599 85.9258 37.9599 85.9258 37.4949 86.86C36.6598 87.6497 36.0368 87.5548 34.9023 87.559C34.7063 87.5601 34.5102 87.5613 34.3083 87.5625C33.8944 87.5633 33.4805 87.5611 33.0666 87.5561C32.4333 87.5497 31.8011 87.556 31.1678 87.5637C30.7653 87.5629 30.3629 87.5614 29.9604 87.559C29.5944 87.5576 29.2284 87.5563 28.8513 87.5549C27.9387 87.3999 27.9387 87.3999 27.3678 86.86C26.9006 85.9214 26.9624 85.1365 27.0402 84.1053C27.1885 83.957 27.1885 83.957 27.3397 83.8058C27.3676 83.3461 27.3749 82.8851 27.3737 82.4246C27.3737 82.1308 27.3737 81.837 27.3737 81.5343C27.3721 81.2148 27.3706 80.8953 27.369 80.5662C27.3685 80.2409 27.3681 79.9155 27.3677 79.5804C27.366 78.5366 27.3622 77.4929 27.3584 76.4491C27.3569 75.7434 27.3556 75.0378 27.3543 74.3321C27.351 72.598 27.346 70.8639 27.3397 69.1299Z" fill="#50C4FB"/>
<path d="M14.4605 83.2065C17.9199 83.2065 21.3792 83.2065 24.9433 83.2065C24.5774 86.8658 24.5774 86.8658 23.7453 87.6992C22.9352 87.8401 22.3139 87.882 21.506 87.8559C21.2886 87.8545 21.0712 87.8531 20.8472 87.8517C20.1532 87.8453 19.4598 87.8283 18.766 87.8115C18.2964 87.8065 17.8269 87.8022 17.3573 87.7986C13.9201 87.7578 13.9201 87.7578 13.562 87.3997C13.5772 86.7574 13.5772 86.7574 13.6556 85.9583C13.6792 85.6969 13.7027 85.4355 13.727 85.1662C13.8615 84.4046 13.8615 84.4046 14.4605 83.2065Z" fill="#50C5FE"/>
<path d="M21.6489 51.7583C21.8466 51.7583 22.0443 51.7583 22.2479 51.7583C22.3776 51.993 22.5074 52.2278 22.641 52.4696C23.2267 53.3807 23.6263 53.5523 24.644 53.8549C24.644 54.5467 24.644 55.2386 24.644 55.9514C24.366 56.0194 24.088 56.0873 23.8016 56.1573C22.6512 56.631 22.5016 56.9614 21.9484 58.048C21.7537 58.6046 21.5793 59.1687 21.4231 59.7374C21.2896 60.2186 21.2896 60.2186 21.1534 60.7096C21.0637 61.042 20.9739 61.3745 20.8814 61.7169C20.7905 62.0447 20.6996 62.3725 20.6059 62.7102C20.2068 64.1623 19.8252 65.6127 19.5067 67.0847C19.2528 68.2313 19.2528 68.2313 18.9533 68.8303C17.8592 68.456 17.5215 68.3298 16.8568 67.3327C16.5358 65.334 17.1002 63.6216 17.829 61.7848C17.928 61.5248 18.027 61.2649 18.129 60.997C18.4433 60.1746 18.7637 59.3546 19.0844 58.5347C19.2987 57.9775 19.5126 57.4203 19.7261 56.8628C20.1945 55.6409 20.6669 54.4206 21.1428 53.2016C21.3236 52.7249 21.4877 52.2419 21.6489 51.7583Z" fill="#A5694C"/>
<path d="M13.7397 88.5182C14.0729 88.5174 14.4061 88.5166 14.7494 88.5158C15.0988 88.5181 15.4482 88.5205 15.8082 88.5228C16.1576 88.5205 16.507 88.5182 16.867 88.5158C17.2002 88.5166 17.5334 88.5174 17.8767 88.5182C18.1834 88.5188 18.4902 88.5195 18.8062 88.5202C19.5521 88.5977 19.5521 88.5977 20.1511 89.1967C20.226 90.0953 20.226 90.0953 20.1511 90.9938C19.3583 91.7866 18.9818 91.6699 17.8767 91.6724C17.5435 91.6731 17.2103 91.6739 16.867 91.6747C16.5176 91.6724 16.1682 91.6701 15.8082 91.6677C15.4588 91.67 15.1094 91.6723 14.7494 91.6747C14.4162 91.6739 14.083 91.6732 13.7397 91.6724C13.433 91.6717 13.1262 91.671 12.8102 91.6703C12.0644 91.5928 12.0644 91.5928 11.4653 90.9938C11.3905 90.0953 11.3905 90.0953 11.4653 89.1967C12.2581 88.4039 12.6346 88.5206 13.7397 88.5182Z" fill="#FF4F4D"/>
<path d="M31.9736 88.4887C32.2923 88.4889 32.611 88.4891 32.9394 88.4893C33.4383 88.4965 33.4383 88.4965 33.9473 88.5039C34.448 88.5025 34.448 88.5025 34.9587 88.501C37.4427 88.5176 37.4427 88.5176 38.1217 89.1965C38.1779 90.2635 38.1779 90.2635 38.1217 91.2931C37.3294 92.0854 35.0146 91.6482 33.9473 91.6488C33.5823 91.6524 33.2172 91.6561 32.8411 91.6599C32.319 91.6607 32.319 91.6607 31.7864 91.6616C31.3046 91.6635 31.3046 91.6635 30.8131 91.6654C30.035 91.5926 30.035 91.5926 29.436 90.9936C29.3296 90.1643 29.2924 89.6957 29.7886 89.0056C30.5378 88.4455 31.0444 88.4859 31.9736 88.4887Z" fill="#FF4E4D"/>
<path d="M26.1416 55.6519C27.5253 55.6519 28.9091 55.6519 30.3347 55.6519C29.9394 55.7507 29.544 55.8495 29.1367 55.9514C29.1383 56.1403 29.1398 56.3293 29.1414 56.524C29.1476 57.3751 29.1516 58.2263 29.1554 59.0775C29.1579 59.375 29.1604 59.6724 29.163 59.9789C29.164 60.2617 29.1649 60.5445 29.1659 60.8359C29.1675 61.0979 29.1691 61.3598 29.1707 61.6297C29.1367 62.241 29.1367 62.241 28.8372 62.5405C27.9387 62.578 27.9387 62.578 27.0401 62.5405C26.7406 62.241 26.7406 62.241 26.7066 61.6297C26.7082 61.3677 26.7098 61.1058 26.7114 60.8359C26.7123 60.5531 26.7133 60.2703 26.7143 59.9789C26.7168 59.6815 26.7193 59.384 26.7219 59.0775C26.7233 58.7788 26.7246 58.4802 26.726 58.1725C26.7295 57.4321 26.7345 56.6917 26.7406 55.9514C26.5429 55.8525 26.3453 55.7537 26.1416 55.6519Z" fill="#3FBCF8"/>
<path d="M30.3345 30.7925C30.631 30.7925 30.9275 30.7925 31.233 30.7925C31.3318 31.1878 31.4307 31.5832 31.5325 31.9905C32.2244 31.9905 32.9162 31.9905 33.6291 31.9905C33.7279 31.694 33.8267 31.3975 33.9286 31.092C34.8181 31.092 35.7077 31.092 36.6241 31.092C36.777 32.1619 36.672 32.5237 36.0251 33.4132C34.9251 34.2382 34.1021 34.5235 32.7305 34.3866C31.642 33.8625 31.0941 33.4878 30.5217 32.4211C30.3345 31.691 30.3345 31.691 30.3345 30.7925Z" fill="#F6F3F1"/>
<path d="M22.5473 30.7925C23.4369 30.7925 24.3264 30.7925 25.2429 30.7925C25.4406 31.1878 25.6383 31.5832 25.8419 31.9905C26.435 31.9905 27.028 31.9905 27.639 31.9905C27.7378 31.5952 27.8367 31.1998 27.9385 30.7925C28.235 30.7925 28.5315 30.7925 28.837 30.7925C28.6934 32.0561 28.4877 32.8281 27.639 33.7876C27.1479 33.7159 26.6569 33.6441 26.166 33.5711C25.7422 33.5147 25.3168 33.469 24.8908 33.4331C24.306 33.3807 23.7253 33.2867 23.1464 33.1885C22.5018 32.2218 22.4872 31.9055 22.5473 30.7925Z" fill="#F4F0EE"/>
<path d="M25.7483 25.9068C27.494 25.9121 28.4622 26.0001 29.7355 27.1984C29.6366 27.4949 29.5378 27.7915 29.436 28.097C28.6085 27.9404 27.8408 27.7649 27.0399 27.4979C26.4225 27.4773 25.8044 27.4726 25.1867 27.4792C24.8612 27.4819 24.5358 27.4846 24.2004 27.4874C23.9514 27.4909 23.7024 27.4944 23.4458 27.4979C23.4458 25.5964 24.0105 25.9413 25.7483 25.9068Z" fill="#884727"/>
<path d="M25.2429 34.9858C25.9878 35.3296 26.611 35.7057 27.2833 36.1839C28.3266 36.8385 29.1476 37.097 30.3346 37.3819C30.2357 37.7773 30.1369 38.1726 30.0351 38.5799C28.0666 38.4192 26.837 37.8287 25.2429 36.6331C24.9434 36.1839 24.9434 36.1839 25.037 35.5287C25.105 35.3496 25.1729 35.1704 25.2429 34.9858Z" fill="#894727"/>
<path d="M26.1416 53.8547C27.5253 53.8547 28.9091 53.8547 30.3347 53.8547C30.3347 54.4478 30.3347 55.0408 30.3347 55.6518C28.951 55.6518 27.5673 55.6518 26.1416 55.6518C26.1416 55.0588 26.1416 54.4657 26.1416 53.8547Z" fill="#FE4847"/>
<path d="M26.1416 63.439C26.8335 63.439 27.5253 63.439 28.2382 63.439C28.2382 65.1192 28.2382 66.7994 28.2382 68.5306C27.8428 68.5306 27.4475 68.5306 27.0401 68.5306C27.0401 67.2457 27.0401 65.9608 27.0401 64.637C26.7436 64.637 26.4471 64.637 26.1416 64.637C26.1416 64.2416 26.1416 63.8463 26.1416 63.439Z" fill="#0CA6F0"/>
<path d="M30.6343 28.0969C32.2157 28.0969 33.7971 28.0969 35.4264 28.0969C35.4264 28.4923 35.4264 28.8876 35.4264 29.295C33.845 29.295 32.2636 29.295 30.6343 29.295C30.6343 28.8996 30.6343 28.5043 30.6343 28.0969Z" fill="#894828"/>
<path d="M30.0348 32.5896C30.5403 33.095 30.5403 33.095 30.9334 33.7876C30.8105 35.1085 30.8105 35.1085 30.3344 35.5847C29.6043 35.6408 29.6043 35.6408 28.8368 35.5847C28.6391 35.387 28.4415 35.1893 28.2378 34.9857C28.3041 34.124 28.4279 33.626 28.9678 32.9453C29.4358 32.5896 29.4358 32.5896 30.0348 32.5896Z" fill="#884626"/>
<path d="M25.5425 30.7925C26.3332 30.7925 27.1239 30.7925 27.9385 30.7925C27.8397 31.2867 27.7409 31.7809 27.639 32.29C27.046 32.29 26.453 32.29 25.842 32.29C25.7432 31.7958 25.6443 31.3016 25.5425 30.7925Z" fill="#3B3C3C"/>
<path d="M31.832 53.8547C32.4251 53.8547 33.0181 53.8547 33.6291 53.8547C33.6291 54.4478 33.6291 55.0408 33.6291 55.6518C33.0361 55.6518 32.443 55.6518 31.832 55.6518C31.832 55.0588 31.832 54.4657 31.832 53.8547Z" fill="#FE4645"/>
<path d="M31.5327 31.092C32.2246 31.092 32.9164 31.092 33.6293 31.092C33.6293 31.4874 33.6293 31.8827 33.6293 32.2901C32.9374 32.2901 32.2455 32.2901 31.5327 32.2901C31.5327 31.8947 31.5327 31.4994 31.5327 31.092Z" fill="#383A3A"/>
<path d="M25.5425 30.7925C26.3332 30.7925 27.1239 30.7925 27.9385 30.7925C27.9385 31.1878 27.9385 31.5832 27.9385 31.9905C27.7409 31.9905 27.5432 31.9905 27.3395 31.9905C27.3395 31.7928 27.3395 31.5952 27.3395 31.3915C26.8453 31.3915 26.3512 31.3915 25.842 31.3915C25.7432 31.1938 25.6443 30.9961 25.5425 30.7925Z" fill="#48403D"/>
<path d="M23.7456 53.8547C24.0421 53.8547 24.3386 53.8547 24.6441 53.8547C24.6441 54.4478 24.6441 55.0408 24.6441 55.6518C24.3476 55.6518 24.0511 55.6518 23.7456 55.6518C23.7456 55.0588 23.7456 54.4657 23.7456 53.8547Z" fill="#F54A47"/>
</svg>
