<svg width="52" height="96" viewBox="0 0 52 96" fill="none" xmlns="http://www.w3.org/2000/svg">
<path d="M25.0727 0.00981519C25.4235 0.00876057 25.7743 0.00770595 26.1356 0.00661937C29.3655 0.0283494 31.9596 0.523179 34.8085 2.05514C35.0483 2.18386 35.2881 2.31258 35.5351 2.44519C40.5191 5.23446 44.2744 9.75663 46.16 15.1657C46.2986 16.036 46.3882 16.9076 46.4873 17.7837C44.1703 17.8087 41.8534 17.8259 39.5364 17.8376C38.7492 17.8426 37.9621 17.8492 37.175 17.8578C36.0393 17.8698 34.9037 17.8753 33.7679 17.8796C33.4197 17.8846 33.0716 17.8897 32.7128 17.8949C28.6805 17.8958 25.5764 16.7654 22.6567 13.9334C21.5201 12.6654 20.8553 11.4617 19.9799 9.92965C19.8719 12.9535 19.7639 15.9773 19.6526 19.0927C20.3006 19.0927 20.9485 19.0927 21.6161 19.0927C23.3427 19.7042 24.66 20.7554 25.5431 22.3652C25.6967 23.3714 25.6666 24.3025 25.5431 25.3105C25.0032 25.3105 24.4632 25.3105 23.9069 25.3105C23.8731 25.5602 23.8394 25.81 23.8046 26.0673C23.5547 27.0441 23.447 27.3908 22.5979 27.9285C21.1687 28.0561 20.5345 28.0801 19.3253 27.274C19.3253 32.8897 19.3253 38.5053 19.3253 44.2912C23.2131 44.2912 27.1009 44.2912 31.1064 44.2912C31.0929 45.6951 31.0794 47.099 31.0655 48.5454C31.1534 52.4732 31.6945 54.8714 34.1113 57.917C35.2931 59.4531 36.3662 61.0674 37.449 62.674C37.8488 63.2612 38.2574 63.8413 38.6677 64.4211C41.0082 67.7917 41.0082 67.7917 40.5967 70.1441C40.1702 71.4 39.8808 71.9426 38.7499 72.6445C37.5219 73.1418 36.4743 73.2346 35.1714 73.232C34.8111 73.2369 34.8111 73.2369 34.4434 73.242C33.6545 73.2512 32.8657 73.2532 32.0767 73.2543C31.5258 73.2574 30.9749 73.2607 30.424 73.2642C29.2717 73.27 28.1194 73.2719 26.9671 73.2713C25.4917 73.2712 24.0167 73.2846 22.5414 73.3015C21.4046 73.3124 20.268 73.3144 19.1312 73.3139C18.5872 73.315 18.0432 73.3194 17.4993 73.327C16.7386 73.3366 15.9788 73.3338 15.218 73.3279C14.8826 73.3361 14.8826 73.3361 14.5404 73.3446C13.6476 73.327 12.9706 73.25 12.2762 72.6638C11.1037 71.2988 10.7727 70.3552 10.8692 68.5947C11.4301 66.4139 12.8468 64.6673 14.1285 62.848C15.2331 61.2589 16.2908 59.6386 17.3509 58.0196C17.7258 57.4491 18.1037 56.8806 18.4822 56.3125C18.714 55.9611 18.9459 55.6097 19.1847 55.2477C19.3932 54.9335 19.6016 54.6193 19.8164 54.2956C20.2576 53.5391 20.4487 52.9856 20.6344 52.1452C20.2542 52.1463 20.2542 52.1463 19.8663 52.1474C17.4825 52.154 15.0988 52.1589 12.715 52.1622C11.4893 52.1639 10.2637 52.1662 9.03807 52.1699C7.85619 52.1734 6.67432 52.1754 5.49244 52.1763C5.04058 52.1769 4.58873 52.178 4.13687 52.1798C3.50605 52.1822 2.87522 52.1823 2.24439 52.1824C1.70481 52.1834 1.70481 52.1834 1.15434 52.1846C0.34471 52.1452 0.34471 52.1452 0.017458 51.818C-0.0613824 49.7975 0.138071 47.8509 0.389452 45.8482C0.42859 45.5258 0.467728 45.2034 0.508052 44.8712C0.636156 43.8186 0.766463 42.7663 0.896949 41.714C1.03258 40.6101 1.16781 39.5062 1.30296 38.4022C1.39478 37.6521 1.48678 36.9021 1.57896 36.1521C1.87549 33.731 2.15769 31.3087 2.42967 28.8847C2.53365 27.9694 2.63786 27.0541 2.74211 26.1388C2.80631 25.5688 2.86936 24.9986 2.93112 24.4283C3.42432 19.8827 3.97674 15.1614 6.17389 11.075C6.2879 10.8573 6.4019 10.6396 6.51936 10.4153C9.17092 5.50369 13.9714 2.32931 19.1886 0.555662C21.1512 -0.0136944 23.042 -0.0208234 25.0727 0.00981519Z" fill="#A56FFE"/>
<path d="M19.6524 9.27515C20.1612 9.95345 20.6673 10.6353 21.1276 11.3473C23.0488 14.2941 25.4473 16.4878 28.9383 17.3129C29.8131 17.4591 30.6276 17.4994 31.514 17.5029C31.8482 17.5052 32.1825 17.5075 32.5268 17.5099C32.8844 17.5112 33.2421 17.5126 33.6105 17.514C34.3718 17.5216 35.133 17.5295 35.8943 17.5376C37.0914 17.5491 38.2885 17.5587 39.4857 17.5631C40.6431 17.5682 41.8003 17.5813 42.9577 17.5958C43.3146 17.5952 43.6716 17.5945 44.0394 17.5939C46.0581 17.6264 47.2306 17.765 48.7779 19.0927C49.0344 19.275 49.2909 19.4572 49.5551 19.645C50.3814 20.8208 50.2934 21.9562 50.0869 23.347C49.5552 24.5699 48.9231 25.2606 47.7962 25.965C47.3102 26.127 47.3102 26.127 46.8144 26.2923C46.8247 26.6436 46.835 26.995 46.8456 27.357C46.8813 28.6725 46.9037 29.9879 46.9223 31.3037C46.9321 31.8709 46.9454 32.4381 46.9625 33.0052C47.1296 38.6936 47.1296 38.6936 45.3879 40.8131C42.0477 44.127 42.0477 44.127 39.5529 44.4092C39.1794 44.407 38.8059 44.4049 38.421 44.4026C37.9953 44.4025 37.5696 44.4025 37.131 44.4024C36.6712 44.3974 36.2115 44.3922 35.7517 44.387C35.2776 44.3852 34.8035 44.3838 34.3294 44.3828C33.0866 44.3791 31.8439 44.3694 30.6012 44.3586C29.1074 44.3467 27.6135 44.3422 26.1197 44.3365C23.8548 44.327 21.5901 44.3082 19.3252 44.2911C19.3252 38.6755 19.3252 33.0598 19.3252 27.274C19.6492 27.382 19.9732 27.49 20.307 27.6013C21.8403 27.7542 21.8403 27.7542 23.2113 27.1922C23.6139 26.566 23.7807 26.0412 23.9067 25.3105C24.4467 25.3105 24.9867 25.3105 25.543 25.3105C25.5338 23.277 25.2129 22.0016 23.7789 20.5232C22.5021 19.4354 21.309 19.3688 19.6524 19.0927C19.6524 15.8529 19.6524 12.6131 19.6524 9.27515Z" fill="#FDC5B5"/>
<path d="M20.6345 44.2911C24.0902 44.2911 27.546 44.2911 31.1065 44.2911C31.093 45.6951 31.0795 47.099 31.0656 48.5454C31.1535 52.4732 31.6946 54.8714 34.1114 57.917C35.2932 59.4531 36.3663 61.0674 37.4491 62.674C37.8489 63.2612 38.2575 63.8413 38.6678 64.4211C41.0083 67.7917 41.0083 67.7917 40.5969 70.1441C40.1703 71.4 39.8809 71.9426 38.75 72.6445C37.522 73.1418 36.4744 73.2346 35.1715 73.232C34.8112 73.2369 34.8112 73.2369 34.4435 73.242C33.6546 73.2512 32.8658 73.2532 32.0768 73.2542C31.5259 73.2574 30.975 73.2607 30.4241 73.2642C29.2718 73.27 28.1196 73.2719 26.9672 73.2713C25.4918 73.2712 24.0168 73.2846 22.5415 73.3015C21.4047 73.3124 20.2681 73.3144 19.1313 73.3139C18.5873 73.315 18.0433 73.3194 17.4994 73.327C16.7387 73.3366 15.9789 73.3337 15.2181 73.3278C14.9945 73.3334 14.7709 73.3389 14.5405 73.3446C13.6477 73.3269 12.9707 73.25 12.2764 72.6638C11.1038 71.2988 10.7728 70.3552 10.8693 68.5947C11.688 65.4112 14.2582 62.6013 16.2102 60.035C20.271 54.5122 20.945 51.122 20.6345 44.2911Z" fill="#594086"/>
<path d="M13.4346 73.0894C21.1021 73.0894 28.7696 73.0894 36.6695 73.0894C36.6695 73.1973 36.6695 73.3053 36.6695 73.4166C34.8336 73.4166 32.9977 73.4166 31.1062 73.4166C31.1062 80.6522 31.1062 87.8877 31.1062 95.3425C27.5424 95.3425 23.9786 95.3425 20.3069 95.3425C20.3069 88.107 20.3069 80.8714 20.3069 73.4166C18.039 73.4166 15.7712 73.4166 13.4346 73.4166C13.4346 73.3086 13.4346 73.2006 13.4346 73.0894Z" fill="#A570FD"/>
<path d="M46.8146 25.9651C47.1385 25.9651 47.4625 25.9651 47.7963 25.9651C48.3601 28.8638 48.8768 31.7639 49.3202 34.6835C49.6052 36.5228 49.925 38.3542 50.2584 40.1852C50.3028 40.4308 50.3473 40.6763 50.393 40.9293C50.664 42.4267 50.664 42.4267 50.9403 43.9231C52.2082 50.7243 52.2082 50.7243 51.3696 52.0499C50.4052 52.6989 49.5794 52.5882 48.4278 52.5799C48.1968 52.5794 47.9658 52.5789 47.7278 52.5784C46.9733 52.5753 46.2191 52.565 45.4646 52.5543C44.947 52.5504 44.4294 52.5468 43.9117 52.5435C39.6383 52.5081 35.3751 52.3522 31.1064 52.1453C31.1064 49.5534 31.1064 46.9616 31.1064 44.2912C32.0771 44.29 32.0771 44.29 33.0674 44.2887C33.7054 44.2795 34.3434 44.2704 34.9814 44.2593C35.6327 44.2505 36.2842 44.2516 36.9356 44.2529C40.0634 44.1897 42.2432 43.6043 44.5019 41.3765C46.1853 39.5305 46.5827 38.1422 46.5397 35.6357C46.538 35.3695 46.5363 35.1034 46.5346 34.8292C46.5287 33.9811 46.5185 33.1332 46.5078 32.2851C46.4987 31.4336 46.4907 30.5821 46.4845 29.7306C46.4804 29.201 46.4747 28.6715 46.467 28.1419C46.4615 27.5254 46.4727 26.9087 46.4873 26.2923C46.5953 26.1843 46.7033 26.0764 46.8146 25.9651Z" fill="#A56FFE"/>
<path d="M34.6857 18.97C35.1555 18.977 35.1555 18.977 35.6348 18.9841C37.9186 19.0327 37.9186 19.0327 38.3059 19.42C38.3342 19.8833 38.3409 20.3479 38.3379 20.8121C38.3368 21.0915 38.3358 21.371 38.3347 21.659C38.3306 22.0997 38.3306 22.0997 38.3264 22.5493C38.3249 22.8444 38.3234 23.1395 38.3219 23.4435C38.318 24.1749 38.3122 24.9063 38.3059 25.6378C36.902 25.6378 35.4981 25.6378 34.0516 25.6378C33.9436 26.0697 33.8356 26.5017 33.7244 26.9468C33.3562 27.5195 33.3562 27.5195 32.7426 27.9285C31.4197 28.0969 30.7401 28.1428 29.6542 27.3354C29.1428 26.6195 29.1428 26.6195 29.1428 25.6378C28.4949 25.6378 27.8469 25.6378 27.1793 25.6378C27.0598 24.1437 27.0331 23.0092 27.6702 21.6289C29.7562 19.3344 31.6434 18.8477 34.6857 18.97Z" fill="#A570FB"/>
<path d="M27.1793 25.6378C27.8273 25.6378 28.4753 25.6378 29.1429 25.6378C29.3588 26.2858 29.5748 26.9337 29.7974 27.6013C30.2675 27.6279 30.738 27.6469 31.2086 27.6627C31.4706 27.6741 31.7326 27.6855 32.0025 27.6972C32.7617 27.6617 32.7617 27.6617 33.3089 27.168C33.7923 26.5909 33.7923 26.5909 34.0516 25.6378C35.4556 25.6378 36.8595 25.6378 38.3059 25.6378C37.944 27.8093 37.45 28.8606 35.8311 30.3216C34.4332 31.2894 33.1173 31.2812 31.4745 31.3034C31.2429 31.3129 31.0113 31.3224 30.7727 31.3321C29.6151 31.3461 28.863 31.2264 27.8377 30.6783C26.9622 29.6328 27.0098 29.0282 27.0771 27.6831C27.0918 27.3001 27.1066 26.9171 27.1218 26.5224C27.1408 26.2305 27.1598 25.9386 27.1793 25.6378Z" fill="#FDFCFB"/>
<path d="M23.9071 25.6378C24.5551 25.6378 25.203 25.6378 25.8706 25.6378C26.0753 28.8847 26.0753 28.8847 25.2775 30.2603C24.081 31.2858 23.0733 31.2379 21.555 31.2216C21.0216 31.2171 21.0216 31.2171 20.4774 31.2126C20.2053 31.2088 19.9332 31.205 19.6528 31.2011C19.6528 30.0132 19.6528 28.8253 19.6528 27.6013C20.3879 27.6333 21.1229 27.6652 21.858 27.6972C22.6172 27.6617 22.6172 27.6617 23.1644 27.168C23.6478 26.5909 23.6478 26.5909 23.9071 25.6378Z" fill="#FCFAF8"/>
<path d="M30.5542 61.5333C31.9798 61.5576 32.9365 61.6509 34.0517 62.6174C34.5507 63.6154 34.456 64.4638 34.3789 65.5626C34.0108 66.1967 34.0108 66.1967 33.3972 66.5444C32.4563 66.7489 32.4563 66.7489 31.4337 66.5444C30.4763 65.587 29.896 64.5494 29.4701 63.2719C28.8167 62.7203 28.8167 62.7203 28.1611 62.2901C29.0061 61.4451 29.3808 61.5381 30.5542 61.5333Z" fill="#F9C3B4"/>
<path d="M25.8706 28.9103C27.2547 29.4046 27.8054 30.2596 28.4886 31.5283C28.6837 32.748 28.6563 33.2466 27.9568 34.269C26.9466 34.9602 26.4176 35.0011 25.2161 34.8008C24.4184 34.2895 24.4184 34.2895 23.907 33.4918C23.8692 31.487 24.6731 30.4147 25.8706 28.9103Z" fill="#EE9684"/>
<path d="M33.786 34.1054C34.4035 34.1256 34.4035 34.1256 35.0336 34.1463C35.2496 34.5783 35.4656 35.0103 35.6881 35.4553C35.3609 35.7826 35.3609 35.7826 34.3587 35.803C32.8 35.9826 32.0532 37.0297 31.0721 38.1667C30.4521 38.7278 30.4521 38.7278 29.1431 38.7278C29.2479 36.9982 30.2516 35.9684 31.4338 34.8008C32.4447 34.1269 32.6477 34.0681 33.786 34.1054Z" fill="#EF9886"/>
<path d="M22.2708 63.2718C21.8213 64.2196 21.3729 64.8243 20.6345 65.5626C20.5266 65.8866 20.4186 66.2106 20.3073 66.5444C19.1194 66.5444 17.9314 66.5444 16.7075 66.5444C16.9855 65.4325 17.2741 64.6853 18.0165 63.8036C19.4261 63.0401 20.7007 63.1621 22.2708 63.2718Z" fill="#F3C0B3"/>
<path d="M19.6528 25.3105C20.9488 25.3105 22.2447 25.3105 23.5799 25.3105C23.5799 26.9468 23.5799 26.9468 23.2322 27.54C22.2527 28.1403 21.4271 28.0304 20.3073 27.9286C20.0914 27.7126 19.8754 27.4966 19.6528 27.2741C19.6528 26.6261 19.6528 25.9781 19.6528 25.3105Z" fill="#403D44"/>
<path d="M29.4702 25.6378C30.8741 25.6378 32.278 25.6378 33.7245 25.6378C33.3972 27.2741 33.3972 27.2741 32.7427 27.9286C30.7349 28.1111 30.7349 28.1111 29.8179 27.5195C29.4702 26.9468 29.4702 26.9468 29.4702 25.6378Z" fill="#3B3B3A"/>
<path d="M25.0727 0.00981519C25.4235 0.00876057 25.7743 0.00770595 26.1356 0.00661937C29.3655 0.0283494 31.9596 0.523179 34.8085 2.05514C35.0483 2.18386 35.2881 2.31258 35.5351 2.44519C40.5191 5.23446 44.2744 9.75663 46.16 15.1657C46.2986 16.036 46.3882 16.9076 46.4873 17.7837C44.1703 17.8087 41.8534 17.8259 39.5364 17.8376C38.7492 17.8426 37.9621 17.8492 37.175 17.8578C36.0393 17.8698 34.9037 17.8753 33.7679 17.8796C33.4197 17.8846 33.0716 17.8897 32.7128 17.8949C28.6805 17.8958 25.5764 16.7654 22.6567 13.9334C21.5201 12.6654 20.8553 11.4617 19.9799 9.92965C19.8719 12.9535 19.7639 15.9773 19.6526 19.0927C20.3006 19.0927 20.9485 19.0927 21.6161 19.0927C23.3427 19.7042 24.66 20.7554 25.5431 22.3652C25.6967 23.3714 25.6666 24.3025 25.5431 25.3105C25.0032 25.3105 24.4632 25.3105 23.9069 25.3105C23.8731 25.5602 23.8394 25.81 23.8046 26.0673C23.5547 27.0441 23.447 27.3908 22.5979 27.9285C21.1687 28.0561 20.5345 28.0801 19.3253 27.274C19.3253 32.8897 19.3253 38.5053 19.3253 44.2912C23.2131 44.2912 27.1009 44.2912 31.1064 44.2912C31.0929 45.6951 31.0794 47.099 31.0655 48.5454C31.1534 52.4732 31.6945 54.8714 34.1113 57.917C35.2931 59.4531 36.3662 61.0674 37.449 62.674C37.8488 63.2612 38.2574 63.8413 38.6677 64.4211C41.0082 67.7917 41.0082 67.7917 40.5967 70.1441C40.1702 71.4 39.8808 71.9426 38.7499 72.6445C37.5219 73.1418 36.4743 73.2346 35.1714 73.232C34.8111 73.2369 34.8111 73.2369 34.4434 73.242C33.6545 73.2512 32.8657 73.2532 32.0767 73.2543C31.5258 73.2574 30.9749 73.2607 30.424 73.2642C29.2717 73.27 28.1194 73.2719 26.9671 73.2713C25.4917 73.2712 24.0167 73.2846 22.5414 73.3015C21.4046 73.3124 20.268 73.3144 19.1312 73.3139C18.5872 73.315 18.0432 73.3194 17.4993 73.327C16.7386 73.3366 15.9788 73.3338 15.218 73.3279C14.8826 73.3361 14.8826 73.3361 14.5404 73.3446C13.6476 73.327 12.9706 73.25 12.2762 72.6638C11.1037 71.2988 10.7727 70.3552 10.8692 68.5947C11.4301 66.4139 12.8468 64.6673 14.1285 62.848C15.2331 61.2589 16.2908 59.6386 17.3509 58.0196C17.7258 57.4491 18.1037 56.8806 18.4822 56.3125C18.714 55.9611 18.9459 55.6097 19.1847 55.2477C19.3932 54.9335 19.6016 54.6193 19.8164 54.2956C20.2576 53.5391 20.4487 52.9856 20.6344 52.1452C20.2542 52.1463 20.2542 52.1463 19.8663 52.1474C17.4825 52.154 15.0988 52.1589 12.715 52.1622C11.4893 52.1639 10.2637 52.1662 9.03807 52.1699C7.85619 52.1734 6.67432 52.1754 5.49244 52.1763C5.04058 52.1769 4.58873 52.178 4.13687 52.1798C3.50605 52.1822 2.87522 52.1823 2.24439 52.1824C1.70481 52.1834 1.70481 52.1834 1.15434 52.1846C0.34471 52.1452 0.34471 52.1452 0.017458 51.818C-0.0613824 49.7975 0.138071 47.8509 0.389452 45.8482C0.42859 45.5258 0.467728 45.2034 0.508052 44.8712C0.636156 43.8186 0.766463 42.7663 0.896949 41.714C1.03258 40.6101 1.16781 39.5062 1.30296 38.4022C1.39478 37.6521 1.48678 36.9021 1.57896 36.1521C1.87549 33.731 2.15769 31.3087 2.42967 28.8847C2.53365 27.9694 2.63786 27.0541 2.74211 26.1388C2.80631 25.5688 2.86936 24.9986 2.93112 24.4283C3.42432 19.8827 3.97674 15.1614 6.17389 11.075C6.2879 10.8573 6.4019 10.6396 6.51936 10.4153C9.17092 5.50369 13.9714 2.32931 19.1886 0.555662C21.1512 -0.0136944 23.042 -0.0208234 25.0727 0.00981519Z" fill="#A56FFE"/>
<path d="M19.6524 9.27515C20.1612 9.95345 20.6673 10.6353 21.1276 11.3473C23.0488 14.2941 25.4473 16.4878 28.9383 17.3129C29.8131 17.4591 30.6276 17.4994 31.514 17.5029C31.8482 17.5052 32.1825 17.5075 32.5268 17.5099C32.8844 17.5112 33.2421 17.5126 33.6105 17.514C34.3718 17.5216 35.133 17.5295 35.8943 17.5376C37.0914 17.5491 38.2885 17.5587 39.4857 17.5631C40.6431 17.5682 41.8003 17.5813 42.9577 17.5958C43.3146 17.5952 43.6716 17.5945 44.0394 17.5939C46.0581 17.6264 47.2306 17.765 48.7779 19.0927C49.0344 19.275 49.2909 19.4572 49.5551 19.645C50.3814 20.8208 50.2934 21.9562 50.0869 23.347C49.5552 24.5699 48.9231 25.2606 47.7962 25.965C47.3102 26.127 47.3102 26.127 46.8144 26.2923C46.8247 26.6436 46.835 26.995 46.8456 27.357C46.8813 28.6725 46.9037 29.9879 46.9223 31.3037C46.9321 31.8709 46.9454 32.4381 46.9625 33.0052C47.1296 38.6936 47.1296 38.6936 45.3879 40.8131C42.0477 44.127 42.0477 44.127 39.5529 44.4092C39.1794 44.407 38.8059 44.4049 38.421 44.4026C37.9953 44.4025 37.5696 44.4025 37.131 44.4024C36.6712 44.3974 36.2115 44.3922 35.7517 44.387C35.2776 44.3852 34.8035 44.3838 34.3294 44.3828C33.0866 44.3791 31.8439 44.3694 30.6012 44.3586C29.1074 44.3467 27.6135 44.3422 26.1197 44.3365C23.8548 44.327 21.5901 44.3082 19.3252 44.2911C19.3252 38.6755 19.3252 33.0598 19.3252 27.274C19.6492 27.382 19.9732 27.49 20.307 27.6013C21.8403 27.7542 21.8403 27.7542 23.2113 27.1922C23.6139 26.566 23.7807 26.0412 23.9067 25.3105C24.4467 25.3105 24.9867 25.3105 25.543 25.3105C25.5338 23.277 25.2129 22.0016 23.7789 20.5232C22.5021 19.4354 21.309 19.3688 19.6524 19.0927C19.6524 15.8529 19.6524 12.6131 19.6524 9.27515Z" fill="#FDC5B5"/>
<path d="M20.6345 44.2911C24.0902 44.2911 27.546 44.2911 31.1065 44.2911C31.093 45.6951 31.0795 47.099 31.0656 48.5454C31.1535 52.4732 31.6946 54.8714 34.1114 57.917C35.2932 59.4531 36.3663 61.0674 37.4491 62.674C37.8489 63.2612 38.2575 63.8413 38.6678 64.4211C41.0083 67.7917 41.0083 67.7917 40.5969 70.1441C40.1703 71.4 39.8809 71.9426 38.75 72.6445C37.522 73.1418 36.4744 73.2346 35.1715 73.232C34.8112 73.2369 34.8112 73.2369 34.4435 73.242C33.6546 73.2512 32.8658 73.2532 32.0768 73.2542C31.5259 73.2574 30.975 73.2607 30.4241 73.2642C29.2718 73.27 28.1196 73.2719 26.9672 73.2713C25.4918 73.2712 24.0168 73.2846 22.5415 73.3015C21.4047 73.3124 20.2681 73.3144 19.1313 73.3139C18.5873 73.315 18.0433 73.3194 17.4994 73.327C16.7387 73.3366 15.9789 73.3337 15.2181 73.3278C14.9945 73.3334 14.7709 73.3389 14.5405 73.3446C13.6477 73.3269 12.9707 73.25 12.2764 72.6638C11.1038 71.2988 10.7728 70.3552 10.8693 68.5947C11.688 65.4112 14.2582 62.6013 16.2102 60.035C20.271 54.5122 20.945 51.122 20.6345 44.2911Z" fill="#594086"/>
<path d="M13.4346 73.0894C21.1021 73.0894 28.7696 73.0894 36.6695 73.0894C36.6695 73.1973 36.6695 73.3053 36.6695 73.4166C34.8336 73.4166 32.9977 73.4166 31.1062 73.4166C31.1062 80.6522 31.1062 87.8877 31.1062 95.3425C27.5424 95.3425 23.9786 95.3425 20.3069 95.3425C20.3069 88.107 20.3069 80.8714 20.3069 73.4166C18.039 73.4166 15.7712 73.4166 13.4346 73.4166C13.4346 73.3086 13.4346 73.2006 13.4346 73.0894Z" fill="#A570FD"/>
<path d="M46.8146 25.9651C47.1385 25.9651 47.4625 25.9651 47.7963 25.9651C48.3601 28.8638 48.8768 31.7639 49.3202 34.6835C49.6052 36.5228 49.925 38.3542 50.2584 40.1852C50.3028 40.4308 50.3473 40.6763 50.393 40.9293C50.664 42.4267 50.664 42.4267 50.9403 43.9231C52.2082 50.7243 52.2082 50.7243 51.3696 52.0499C50.4052 52.6989 49.5794 52.5882 48.4278 52.5799C48.1968 52.5794 47.9658 52.5789 47.7278 52.5784C46.9733 52.5753 46.2191 52.565 45.4646 52.5543C44.947 52.5504 44.4294 52.5468 43.9117 52.5435C39.6383 52.5081 35.3751 52.3522 31.1064 52.1453C31.1064 49.5534 31.1064 46.9616 31.1064 44.2912C32.0771 44.29 32.0771 44.29 33.0674 44.2887C33.7054 44.2795 34.3434 44.2704 34.9814 44.2593C35.6327 44.2505 36.2842 44.2516 36.9356 44.2529C40.0634 44.1897 42.2432 43.6043 44.5019 41.3765C46.1853 39.5305 46.5827 38.1422 46.5397 35.6357C46.538 35.3695 46.5363 35.1034 46.5346 34.8292C46.5287 33.9811 46.5185 33.1332 46.5078 32.2851C46.4987 31.4336 46.4907 30.5821 46.4845 29.7306C46.4804 29.201 46.4747 28.6715 46.467 28.1419C46.4615 27.5254 46.4727 26.9087 46.4873 26.2923C46.5953 26.1843 46.7033 26.0764 46.8146 25.9651Z" fill="#A56FFE"/>
<path d="M34.6857 18.97C35.1555 18.977 35.1555 18.977 35.6348 18.9841C37.9186 19.0327 37.9186 19.0327 38.3059 19.42C38.3342 19.8833 38.3409 20.3479 38.3379 20.8121C38.3368 21.0915 38.3358 21.371 38.3347 21.659C38.3306 22.0997 38.3306 22.0997 38.3264 22.5493C38.3249 22.8444 38.3234 23.1395 38.3219 23.4435C38.318 24.1749 38.3122 24.9063 38.3059 25.6378C36.902 25.6378 35.4981 25.6378 34.0516 25.6378C33.9436 26.0697 33.8356 26.5017 33.7244 26.9468C33.3562 27.5195 33.3562 27.5195 32.7426 27.9285C31.4197 28.0969 30.7401 28.1428 29.6542 27.3354C29.1428 26.6195 29.1428 26.6195 29.1428 25.6378C28.4949 25.6378 27.8469 25.6378 27.1793 25.6378C27.0598 24.1437 27.0331 23.0092 27.6702 21.6289C29.7562 19.3344 31.6434 18.8477 34.6857 18.97Z" fill="#A570FB"/>
<path d="M27.1793 25.6378C27.8273 25.6378 28.4753 25.6378 29.1429 25.6378C29.3588 26.2858 29.5748 26.9337 29.7974 27.6013C30.2675 27.6279 30.738 27.6469 31.2086 27.6627C31.4706 27.6741 31.7326 27.6855 32.0025 27.6972C32.7617 27.6617 32.7617 27.6617 33.3089 27.168C33.7923 26.5909 33.7923 26.5909 34.0516 25.6378C35.4556 25.6378 36.8595 25.6378 38.3059 25.6378C37.944 27.8093 37.45 28.8606 35.8311 30.3216C34.4332 31.2894 33.1173 31.2812 31.4745 31.3034C31.2429 31.3129 31.0113 31.3224 30.7727 31.3321C29.6151 31.3461 28.863 31.2264 27.8377 30.6783C26.9622 29.6328 27.0098 29.0282 27.0771 27.6831C27.0918 27.3001 27.1066 26.9171 27.1218 26.5224C27.1408 26.2305 27.1598 25.9386 27.1793 25.6378Z" fill="#FDFCFB"/>
<path d="M23.9071 25.6378C24.5551 25.6378 25.203 25.6378 25.8706 25.6378C26.0753 28.8847 26.0753 28.8847 25.2775 30.2603C24.081 31.2858 23.0733 31.2379 21.555 31.2216C21.0216 31.2171 21.0216 31.2171 20.4774 31.2126C20.2053 31.2088 19.9332 31.205 19.6528 31.2011C19.6528 30.0132 19.6528 28.8253 19.6528 27.6013C20.3879 27.6333 21.1229 27.6652 21.858 27.6972C22.6172 27.6617 22.6172 27.6617 23.1644 27.168C23.6478 26.5909 23.6478 26.5909 23.9071 25.6378Z" fill="#FCFAF8"/>
<path d="M30.5542 61.5333C31.9798 61.5576 32.9365 61.6509 34.0517 62.6174C34.5507 63.6154 34.456 64.4638 34.3789 65.5626C34.0108 66.1967 34.0108 66.1967 33.3972 66.5444C32.4563 66.7489 32.4563 66.7489 31.4337 66.5444C30.4763 65.587 29.896 64.5494 29.4701 63.2719C28.8167 62.7203 28.8167 62.7203 28.1611 62.2901C29.0061 61.4451 29.3808 61.5381 30.5542 61.5333Z" fill="#F9C3B4"/>
<path d="M25.8706 28.9103C27.2547 29.4046 27.8054 30.2596 28.4886 31.5283C28.6837 32.748 28.6563 33.2466 27.9568 34.269C26.9466 34.9602 26.4176 35.0011 25.2161 34.8008C24.4184 34.2895 24.4184 34.2895 23.907 33.4918C23.8692 31.487 24.6731 30.4147 25.8706 28.9103Z" fill="#EE9684"/>
<path d="M33.786 34.1054C34.4035 34.1256 34.4035 34.1256 35.0336 34.1463C35.2496 34.5783 35.4656 35.0103 35.6881 35.4553C35.3609 35.7826 35.3609 35.7826 34.3587 35.803C32.8 35.9826 32.0532 37.0297 31.0721 38.1667C30.4521 38.7278 30.4521 38.7278 29.1431 38.7278C29.2479 36.9982 30.2516 35.9684 31.4338 34.8008C32.4447 34.1269 32.6477 34.0681 33.786 34.1054Z" fill="#EF9886"/>
<path d="M22.2708 63.2718C21.8213 64.2196 21.3729 64.8243 20.6345 65.5626C20.5266 65.8866 20.4186 66.2106 20.3073 66.5444C19.1194 66.5444 17.9314 66.5444 16.7075 66.5444C16.9855 65.4325 17.2741 64.6853 18.0165 63.8036C19.4261 63.0401 20.7007 63.1621 22.2708 63.2718Z" fill="#F3C0B3"/>
<path d="M19.6528 25.3105C20.9488 25.3105 22.2447 25.3105 23.5799 25.3105C23.5799 26.9468 23.5799 26.9468 23.2322 27.54C22.2527 28.1403 21.4271 28.0304 20.3073 27.9286C20.0914 27.7126 19.8754 27.4966 19.6528 27.2741C19.6528 26.6261 19.6528 25.9781 19.6528 25.3105Z" fill="#403D44"/>
<path d="M29.4702 25.6378C30.8741 25.6378 32.278 25.6378 33.7245 25.6378C33.3972 27.2741 33.3972 27.2741 32.7427 27.9286C30.7349 28.1111 30.7349 28.1111 29.8179 27.5195C29.4702 26.9468 29.4702 26.9468 29.4702 25.6378Z" fill="#3B3B3A"/>
</svg>
